<svg xmlns="http://www.w3.org/2000/svg" width="200" height="200" viewBox="0 0 200 200">
  <!-- Cat 1: Orange tabby -->
  <g transform="translate(20,20)" opacity="0.4">
    <ellipse cx="30" cy="40" rx="25" ry="18" fill="#ffcc80"/>
    <circle cx="50" cy="30" r="18" fill="#ffcc80"/>
    <polygon points="38,15 42,0 50,12" fill="#ffcc80"/>
    <polygon points="62,15 58,0 50,12" fill="#ffcc80"/>
    <polygon points="40,14 43,4 48,12" fill="#ffb74d"/>
    <polygon points="60,14 57,4 52,12" fill="#ffb74d"/>
    <circle cx="44" cy="28" r="3" fill="#333"/>
    <circle cx="56" cy="28" r="3" fill="#333"/>
    <ellipse cx="50" cy="35" rx="3" ry="2" fill="#ff8a80"/>
    <path d="M5 40 Q-5 25 5 15" stroke="#ffcc80" stroke-width="6" fill="none" stroke-linecap="round"/>
  </g>
  <!-- Cat 2: Gray cat sitting -->
  <g transform="translate(110,90)" opacity="0.35">
    <ellipse cx="35" cy="50" rx="22" ry="25" fill="#9e9e9e"/>
    <circle cx="35" cy="20" r="20" fill="#9e9e9e"/>
    <polygon points="20,5 15,-12 30,2" fill="#9e9e9e"/>
    <polygon points="50,5 55,-12 40,2" fill="#9e9e9e"/>
    <circle cx="28" cy="18" r="4" fill="#66bb6a"/>
    <circle cx="42" cy="18" r="4" fill="#66bb6a"/>
    <circle cx="28" cy="18" r="2" fill="#333"/>
    <circle cx="42" cy="18" r="2" fill="#333"/>
    <ellipse cx="35" cy="26" rx="3" ry="2" fill="#ffab91"/>
  </g>
  <!-- Cat 3: Sleeping white cat -->
  <g transform="translate(10,130)" opacity="0.3">
    <ellipse cx="40" cy="30" rx="35" ry="20" fill="#e0e0e0"/>
    <circle cx="65" cy="25" r="15" fill="#e0e0e0"/>
    <path d="M55 23 Q60 20 65 23" stroke="#666" stroke-width="1.5" fill="none"/>
    <path d="M65 23 Q70 20 75 23" stroke="#666" stroke-width="1.5" fill="none"/>
    <ellipse cx="68" cy="30" rx="2" ry="1.5" fill="#ffab91"/>
    <path d="M5 30 Q0 45 15 48" stroke="#e0e0e0" stroke-width="8" fill="none" stroke-linecap="round"/>
  </g>
  <!-- Paw prints -->
  <g fill="#ffb6c1" opacity="0.25">
    <circle cx="95" cy="25" r="5"/><circle cx="89" cy="17" r="2.5"/><circle cx="101" cy="17" r="2.5"/>
    <circle cx="170" cy="65" r="4"/><circle cx="165" cy="58" r="2"/><circle cx="175" cy="58" r="2"/>
  </g>
  <!-- Hearts -->
  <g fill="#ec407a" opacity="0.2">
    <path d="M160 150 c0-4 5-6 8-3 3-3 8-1 8 3 0 5-8 10-8 10s-8-5-8-10"/>
  </g>
</svg>
