<svg xmlns="http://www.w3.org/2000/svg" width="150" height="150" viewBox="0 0 150 150">
  <!-- Cheese wedge 1 -->
  <g transform="translate(10,10)" opacity="0.45">
    <polygon points="0,55 45,0 90,55" fill="#ffc107" stroke="#ff8f00" stroke-width="1"/>
    <rect x="0" y="55" width="90" height="12" fill="#ffb300"/>
    <polygon points="90,55 90,67 45,12" fill="#ff8f00" opacity="0.4"/>
    <circle cx="20" cy="40" r="7" fill="#fff8e1"/>
    <circle cx="55" cy="35" r="9" fill="#fff8e1"/>
    <circle cx="35" cy="58" r="5" fill="#fff8e1"/>
    <circle cx="72" cy="48" r="6" fill="#fff8e1"/>
  </g>
  <!-- Cheese slice -->
  <g transform="translate(75,75)" opacity="0.4">
    <rect x="0" y="0" width="55" height="50" rx="3" fill="#ffca28" stroke="#ff8f00" stroke-width="1"/>
    <rect x="0" y="50" width="55" height="10" fill="#ffb300"/>
    <circle cx="15" cy="18" r="6" fill="#fff8e1"/>
    <circle cx="40" cy="30" r="8" fill="#fff8e1"/>
    <circle cx="25" cy="42" r="5" fill="#fff8e1"/>
  </g>
  <!-- Small cheese cubes -->
  <g opacity="0.35">
    <rect x="105" y="15" width="22" height="22" rx="2" fill="#ffd54f" transform="rotate(15 116 26)"/>
    <circle cx="112" cy="22" r="3" fill="#fff8e1"/>
    <circle cx="120" cy="30" r="4" fill="#fff8e1"/>
    <rect x="15" y="100" width="20" height="20" rx="2" fill="#ffca28" transform="rotate(-10 25 110)"/>
    <circle cx="22" cy="106" r="3" fill="#fff8e1"/>
    <circle cx="30" cy="114" r="3" fill="#fff8e1"/>
  </g>
  <!-- Extra holes -->
  <g fill="#ffe082" opacity="0.3">
    <circle cx="130" cy="130" r="10"/>
    <circle cx="60" cy="130" r="6"/>
    <circle cx="140" cy="65" r="5"/>
  </g>
</svg>
