<svg xmlns="http://www.w3.org/2000/svg" width="200" height="200" viewBox="0 0 200 200">
  <!-- Dog 1: Golden retriever face -->
  <g transform="translate(15,15)" opacity="0.4">
    <ellipse cx="40" cy="40" rx="30" ry="28" fill="#ffcc80"/>
    <ellipse cx="10" cy="35" rx="12" ry="25" fill="#ffb74d"/>
    <ellipse cx="70" cy="35" rx="12" ry="25" fill="#ffb74d"/>
    <ellipse cx="40" cy="50" rx="15" ry="12" fill="#ffe0b2"/>
    <circle cx="30" cy="35" r="5" fill="white"/>
    <circle cx="50" cy="35" r="5" fill="white"/>
    <circle cx="31" cy="36" r="3" fill="#5d4037"/>
    <circle cx="51" cy="36" r="3" fill="#5d4037"/>
    <ellipse cx="40" cy="48" rx="5" ry="4" fill="#5d4037"/>
    <path d="M30 55 Q40 65 50 55" stroke="#5d4037" stroke-width="2" fill="none"/>
    <ellipse cx="40" cy="60" rx="6" ry="8" fill="#ff8a80"/>
  </g>
  <!-- Dog 2: Brown puppy -->
  <g transform="translate(105,85)" opacity="0.35">
    <ellipse cx="40" cy="55" rx="28" ry="30" fill="#a1887f"/>
    <circle cx="40" cy="22" r="24" fill="#a1887f"/>
    <ellipse cx="15" cy="18" rx="12" ry="20" fill="#8d6e63"/>
    <ellipse cx="65" cy="18" rx="12" ry="20" fill="#8d6e63"/>
    <ellipse cx="40" cy="30" rx="12" ry="9" fill="#d7ccc8"/>
    <circle cx="32" cy="18" r="4" fill="#5d4037"/>
    <circle cx="48" cy="18" r="4" fill="#5d4037"/>
    <ellipse cx="40" cy="28" rx="4" ry="3" fill="#5d4037"/>
    <rect x="25" y="42" width="30" height="6" rx="3" fill="#4fc3f7"/>
    <circle cx="40" cy="48" r="4" fill="#ffd54f"/>
  </g>
  <!-- Dog 3: Sleeping beagle -->
  <g transform="translate(5,130)" opacity="0.3">
    <ellipse cx="45" cy="32" rx="40" ry="22" fill="#d7ccc8"/>
    <ellipse cx="35" cy="25" rx="25" ry="15" fill="#a1887f" opacity="0.5"/>
    <circle cx="75" cy="25" r="18" fill="#d7ccc8"/>
    <ellipse cx="90" cy="20" rx="10" ry="16" fill="#8d6e63"/>
    <path d="M68 23 Q73 20 78 23" stroke="#5d4037" stroke-width="1.5" fill="none"/>
    <ellipse cx="78" cy="30" rx="3" ry="2" fill="#5d4037"/>
    <path d="M5 32 Q-5 18 10 12" stroke="#d7ccc8" stroke-width="10" fill="none" stroke-linecap="round"/>
  </g>
  <!-- Bones -->
  <g fill="#efebe9" opacity="0.3">
    <g transform="translate(95,20) rotate(20)">
      <rect x="0" y="4" width="22" height="7" rx="2"/>
      <circle cx="0" cy="4" r="5"/><circle cx="0" cy="11" r="5"/>
      <circle cx="22" cy="4" r="5"/><circle cx="22" cy="11" r="5"/>
    </g>
    <g transform="translate(160,160) rotate(-15)">
      <rect x="0" y="3" width="18" height="6" rx="2"/>
      <circle cx="0" cy="3" r="4"/><circle cx="0" cy="9" r="4"/>
      <circle cx="18" cy="3" r="4"/><circle cx="18" cy="9" r="4"/>
    </g>
  </g>
  <!-- Paw prints -->
  <g fill="#bcaaa4" opacity="0.25">
    <circle cx="170" cy="55" r="5"/><circle cx="164" cy="47" r="2.5"/><circle cx="176" cy="47" r="2.5"/>
    <circle cx="85" cy="175" r="4"/><circle cx="80" cy="168" r="2"/><circle cx="90" cy="168" r="2"/>
  </g>
</svg>
